<?xml version="1.0" encoding="UTF-8" ?>
<svg version="1.1" width="40" height="40" xmlns="http://www.w3.org/2000/svg" shape-rendering="crispEdges">
<rect x="10" y="0" width="5" height="5" fill="#000000" />
<rect x="15" y="0" width="5" height="5" fill="#000000" />
<rect x="20" y="0" width="5" height="5" fill="#000000" />
<rect x="25" y="0" width="5" height="5" fill="#000000" />
<rect x="5" y="5" width="5" height="5" fill="#000000" />
<rect x="10" y="5" width="5" height="5" fill="#BD1414" />
<rect x="15" y="5" width="5" height="5" fill="#CF2C2C" />
<rect x="20" y="5" width="5" height="5" fill="#CF2C2C" />
<rect x="25" y="5" width="5" height="5" fill="#BD1414" />
<rect x="30" y="5" width="5" height="5" fill="#000000" />
<rect x="0" y="10" width="5" height="5" fill="#000000" />
<rect x="5" y="10" width="5" height="5" fill="#BD1414" />
<rect x="10" y="10" width="5" height="5" fill="#CF2C2C" />
<rect x="15" y="10" width="5" height="5" fill="#ED6868" />
<rect x="20" y="10" width="5" height="5" fill="#ED6868" />
<rect x="25" y="10" width="5" height="5" fill="#CF2C2C" />
<rect x="30" y="10" width="5" height="5" fill="#BD1414" />
<rect x="35" y="10" width="5" height="5" fill="#000000" />
<rect x="0" y="15" width="5" height="5" fill="#000000" />
<rect x="5" y="15" width="5" height="5" fill="#CF2C2C" />
<rect x="10" y="15" width="5" height="5" fill="#ED6868" />
<rect x="15" y="15" width="5" height="5" fill="#FBCFCF" />
<rect x="20" y="15" width="5" height="5" fill="#FBCFCF" />
<rect x="25" y="15" width="5" height="5" fill="#ED6868" />
<rect x="30" y="15" width="5" height="5" fill="#CF2C2C" />
<rect x="35" y="15" width="5" height="5" fill="#000000" />
<rect x="0" y="20" width="5" height="5" fill="#000000" />
<rect x="5" y="20" width="5" height="5" fill="#CF2C2C" />
<rect x="10" y="20" width="5" height="5" fill="#ED6868" />
<rect x="15" y="20" width="5" height="5" fill="#FBCFCF" />
<rect x="20" y="20" width="5" height="5" fill="#FBCFCF" />
<rect x="25" y="20" width="5" height="5" fill="#ED6868" />
<rect x="30" y="20" width="5" height="5" fill="#CF2C2C" />
<rect x="35" y="20" width="5" height="5" fill="#000000" />
<rect x="0" y="25" width="5" height="5" fill="#000000" />
<rect x="5" y="25" width="5" height="5" fill="#BD1414" />
<rect x="10" y="25" width="5" height="5" fill="#CF2C2C" />
<rect x="15" y="25" width="5" height="5" fill="#ED6868" />
<rect x="20" y="25" width="5" height="5" fill="#ED6868" />
<rect x="25" y="25" width="5" height="5" fill="#CF2C2C" />
<rect x="30" y="25" width="5" height="5" fill="#BD1414" />
<rect x="35" y="25" width="5" height="5" fill="#000000" />
<rect x="5" y="30" width="5" height="5" fill="#000000" />
<rect x="10" y="30" width="5" height="5" fill="#BD1414" />
<rect x="15" y="30" width="5" height="5" fill="#CF2C2C" />
<rect x="20" y="30" width="5" height="5" fill="#CF2C2C" />
<rect x="25" y="30" width="5" height="5" fill="#BD1414" />
<rect x="30" y="30" width="5" height="5" fill="#000000" />
<rect x="10" y="35" width="5" height="5" fill="#000000" />
<rect x="15" y="35" width="5" height="5" fill="#000000" />
<rect x="20" y="35" width="5" height="5" fill="#000000" />
<rect x="25" y="35" width="5" height="5" fill="#000000" />
</svg>